<?xml version="1.0" encoding="utf-8"?>
<!-- Uploaded to: SVG Repo, www.svgrepo.com, Generator: SVG Repo Mixer Tools -->
<svg width="800px" height="800px" viewBox="0 0 1024 1024" fill="#000000" class="icon"  version="1.1" xmlns="http://www.w3.org/2000/svg"><path d="M596.8 994.4h-0.8c-9.6-0.8-18.4-7.2-20.8-16.8L457.6 551.2 29.6 432c-9.6-2.4-16-11.2-16.8-20.8-0.8-9.6 5.6-19.2 14.4-22.4L945.6 31.2c8.8-3.2 17.6-1.6 24 4.8 6.4 6.4 8.8 16 4.8 24l-356 920c-4 8.8-12 14.4-21.6 14.4zM107.2 406.4l375.2 104.8c8 2.4 13.6 8 16 16l102.4 372 313.6-806.4L107.2 406.4z" fill="" /><path d="M494.4 207.2h52.8v28.8h-52.8z" fill="" /></svg>